<?xml version="1.0" standalone="no"?>
<!DOCTYPE svg PUBLIC "-//W3C//DTD SVG 20010904//EN"
 "http://www.w3.org/TR/2001/REC-SVG-20010904/DTD/svg10.dtd">
<svg version="1.0" xmlns="http://www.w3.org/2000/svg"
 width="2586.000000pt" height="2586.000000pt" viewBox="0 0 2586.000000 2586.000000"
 preserveAspectRatio="xMidYMid meet">
<metadata>
Created by potrace 1.14, written by Peter Selinger 2001-2017
</metadata>
<g transform="translate(0.000000,2586.000000) scale(0.100000,-0.100000)"
fill="#000000" stroke="none">
<path d="M4458 17855 c-1 -1 -50 -6 -108 -9 -58 -4 -112 -9 -120 -11 -8 -2
-44 -6 -80 -10 -77 -8 -97 -11 -170 -25 -30 -6 -71 -12 -90 -14 -19 -3 -66
-12 -105 -21 -38 -9 -81 -18 -95 -21 -21 -4 -75 -18 -192 -49 -10 -3 -27 -7
-38 -10 -19 -4 -72 -20 -110 -33 -8 -3 -18 -6 -22 -7 -5 -2 -9 -3 -10 -5 -2
-1 -10 -3 -18 -5 -8 -2 -53 -17 -100 -35 -47 -17 -89 -32 -95 -34 -5 -1 -27
-10 -49 -19 -21 -9 -40 -17 -43 -17 -2 0 -25 -9 -51 -21 -26 -11 -56 -24 -67
-29 -44 -18 -373 -183 -425 -212 -30 -17 -56 -35 -58 -40 -2 -4 -8 -8 -13 -8
-11 0 -112 -61 -120 -73 -3 -5 -9 -8 -13 -7 -14 2 -358 -243 -364 -261 -2 -5
-10 -9 -17 -9 -8 0 -18 -6 -22 -13 -4 -7 -28 -28 -53 -47 -25 -19 -50 -39 -56
-45 -6 -5 -40 -35 -75 -65 -79 -69 -349 -339 -409 -411 -25 -29 -54 -63 -66
-75 -12 -12 -56 -66 -98 -121 -43 -54 -84 -106 -92 -116 -24 -30 -166 -237
-220 -322 -77 -121 -88 -140 -85 -144 1 -2 -1 -7 -6 -10 -4 -3 -17 -23 -28
-43 -11 -21 -24 -38 -29 -38 -5 0 -7 -3 -3 -6 3 -3 -7 -27 -22 -52 -70 -120
-234 -476 -223 -486 3 -3 1 -6 -5 -6 -6 0 -16 -20 -23 -45 -7 -25 -17 -45 -23
-45 -6 0 -8 -3 -4 -6 3 -3 -6 -36 -20 -72 -29 -79 -109 -326 -118 -366 -1 -6
-5 -18 -8 -26 -6 -16 -36 -130 -43 -165 -4 -21 -12 -59 -19 -85 -2 -8 -4 -15
-5 -15 -2 0 -9 -36 -14 -75 -3 -19 -7 -42 -9 -50 -5 -18 -16 -76 -21 -110 -3
-14 -5 -25 -6 -25 -1 0 -3 -13 -5 -30 -1 -16 -6 -49 -9 -72 -3 -24 -8 -62 -11
-85 -3 -24 -8 -61 -12 -83 -34 -239 -39 -852 -8 -1093 2 -15 7 -56 10 -92 3
-36 8 -72 10 -80 2 -8 7 -40 11 -70 3 -30 8 -64 9 -75 10 -55 17 -97 31 -165
9 -41 18 -86 20 -100 2 -14 10 -47 16 -75 14 -60 13 -54 21 -85 4 -14 9 -34
11 -45 1 -11 5 -27 8 -35 3 -8 16 -51 28 -95 60 -213 147 -450 248 -680 57
-129 214 -430 254 -487 10 -14 18 -29 18 -32 0 -4 8 -19 19 -34 57 -82 135
-208 133 -214 -1 -5 2 -8 7 -8 7 0 59 -70 96 -129 6 -9 12 -18 15 -21 3 -3 28
-34 55 -70 42 -56 130 -165 145 -180 3 -3 34 -39 70 -80 75 -87 319 -332 404
-405 32 -27 79 -69 104 -92 26 -23 53 -43 60 -43 6 0 12 -3 12 -8 0 -4 32 -32
71 -61 39 -30 77 -60 84 -67 7 -7 15 -10 19 -7 3 4 6 1 6 -5 0 -7 7 -12 15
-12 8 0 15 -4 15 -8 0 -10 279 -195 350 -233 25 -13 47 -26 50 -29 14 -14 322
-170 440 -223 96 -42 403 -158 455 -171 6 -2 30 -9 55 -16 63 -19 60 -18 110
-30 25 -7 55 -16 67 -22 11 -6 25 -8 30 -5 4 2 19 0 33 -5 14 -6 34 -12 45
-14 30 -5 60 -12 60 -14 0 -2 27 -7 73 -14 22 -3 51 -8 64 -10 38 -9 81 -17
123 -22 22 -3 51 -7 65 -10 14 -3 48 -7 75 -10 60 -6 110 -12 110 -14 0 -6
249 -15 445 -15 220 0 359 6 475 20 87 11 193 26 216 30 13 3 43 8 65 11 46 5
57 7 126 23 27 6 51 11 55 10 5 -1 10 0 13 1 3 1 12 3 20 5 8 2 51 13 95 25
44 11 89 22 100 24 11 2 20 4 20 5 0 2 7 4 15 6 8 2 24 6 35 9 11 2 47 14 80
25 33 11 68 21 78 21 9 0 17 5 17 12 0 6 3 9 6 5 3 -3 18 -1 33 5 14 5 33 11
41 13 20 4 220 83 242 95 10 6 25 10 33 10 8 0 15 5 15 10 0 6 3 9 8 8 11 -3
101 38 247 113 193 99 220 113 223 122 2 4 10 7 18 7 8 0 14 4 14 9 0 5 8 11
18 14 16 5 62 32 87 50 32 23 87 57 93 57 4 0 15 9 25 20 9 11 24 20 32 20 8
0 15 5 15 10 0 6 8 14 18 17 9 4 31 17 47 30 44 34 47 36 85 63 19 13 37 27
40 30 3 3 23 18 45 35 188 140 478 415 659 625 87 100 193 232 226 280 13 19
27 37 30 40 6 5 85 117 105 149 6 9 34 51 63 94 28 43 52 83 52 88 0 5 4 9 8
9 5 0 14 16 22 35 8 19 17 35 22 35 4 0 8 7 8 15 0 8 3 15 8 15 4 0 16 20 27
45 11 25 23 45 27 45 3 0 8 6 10 13 2 6 32 68 68 137 35 69 64 127 65 130 0 3
6 15 13 26 6 12 8 24 5 28 -3 3 -2 6 4 6 6 0 14 10 18 23 10 30 8 27 33 79 12
26 22 49 22 51 0 3 8 22 17 43 9 22 17 41 18 44 0 3 17 48 37 100 31 80 46
123 53 150 1 3 4 12 8 20 20 49 48 144 49 168 1 6 4 12 8 12 4 0 7 6 8 13 3
28 10 62 11 62 3 0 12 36 13 53 1 6 5 12 10 12 5 0 6 5 3 10 -3 6 -3 15 1 22
4 7 9 21 11 33 3 20 5 31 16 75 4 14 9 36 11 50 3 14 11 57 20 95 38 179 70
406 81 580 2 33 5 60 6 60 10 0 16 596 6 710 -4 39 -9 102 -12 140 -3 39 -7
86 -10 105 -2 19 -7 53 -9 75 -19 148 -50 329 -78 450 -11 50 -23 104 -25 120
-3 17 -7 37 -10 45 -15 36 -31 106 -26 112 2 5 0 8 -5 8 -5 0 -9 6 -9 13 -1
28 -113 377 -143 442 -26 58 -48 115 -45 115 4 0 -34 82 -61 133 -8 15 -13 27
-10 27 5 0 -164 338 -189 378 -22 35 -45 82 -44 88 0 4 -5 10 -13 15 -7 5 -13
12 -13 16 -1 4 -12 26 -26 48 -15 22 -26 44 -27 49 0 5 -4 12 -9 15 -4 3 -35
47 -67 96 -105 158 -288 400 -381 501 -5 6 -40 45 -78 87 -75 83 -244 257
-250 257 -2 0 -32 27 -66 61 -33 33 -61 59 -61 56 0 -2 -16 11 -36 30 -51 47
-231 193 -240 193 -4 0 -15 10 -25 22 -11 11 -19 18 -19 14 0 -4 -10 3 -22 14
-26 24 -243 169 -338 225 -36 21 -68 44 -72 49 -4 6 -8 7 -8 3 0 -5 -13 1 -29
13 -51 35 -400 205 -526 255 -66 26 -129 51 -140 55 -26 11 -59 22 -63 20 -1
0 -16 7 -32 15 -16 8 -32 15 -35 14 -3 -1 -18 3 -33 9 -30 11 -160 50 -188 57
-17 4 -68 17 -116 30 -33 9 -63 16 -88 21 -14 2 -36 7 -50 11 -36 9 -52 12
-80 17 -14 3 -34 6 -45 9 -11 2 -42 8 -70 12 -27 5 -57 9 -65 11 -33 7 -221
30 -325 40 -52 5 -612 14 -617 9z"/>
<path d="M11255 15940 c-5 -7 -14 -74 -21 -155 -3 -33 -7 -71 -10 -85 -2 -14
-6 -50 -9 -80 -3 -30 -7 -66 -10 -80 -6 -29 -17 -147 -17 -173 1 -9 -4 -15
-10 -11 -7 4 -7 0 1 -13 6 -11 8 -23 5 -25 -2 -3 -9 -45 -15 -94 -5 -49 -11
-100 -14 -114 -2 -14 -6 -52 -10 -85 -6 -67 -14 -134 -20 -181 -2 -17 -7 -57
-10 -90 -3 -32 -8 -72 -10 -89 -5 -43 -14 -112 -20 -169 -3 -27 -8 -53 -11
-58 -3 -4 0 -8 7 -8 8 0 8 -4 1 -12 -5 -7 -12 -42 -16 -78 -3 -36 -8 -83 -11
-105 -3 -22 -8 -60 -10 -85 -3 -25 -8 -70 -11 -100 -4 -30 -7 -67 -8 -82 0
-16 -3 -28 -6 -28 -3 0 -5 -17 -6 -38 0 -20 -4 -64 -8 -97 -4 -33 -9 -78 -12
-100 -2 -22 -6 -58 -9 -80 -3 -22 -8 -62 -11 -90 -6 -67 -8 -78 -17 -92 -5 -8
-3 -13 3 -13 6 0 9 -3 7 -7 -6 -9 -19 -99 -22 -153 -2 -19 -4 -35 -5 -35 -1 0
-3 -18 -5 -40 -2 -22 -6 -60 -9 -85 -3 -25 -8 -67 -11 -95 -3 -27 -7 -63 -10
-80 -8 -55 -19 -170 -19 -205 l-1 -35 304 0 305 0 2 25 c1 14 5 54 8 90 8 72
14 128 20 193 2 23 7 69 10 102 4 33 9 85 12 115 2 30 7 71 9 90 6 58 16 143
20 185 3 40 15 158 20 205 2 14 6 57 10 95 3 39 8 84 10 100 12 98 29 276 40
415 3 41 8 95 10 120 2 25 7 92 11 150 3 58 8 121 9 140 2 19 3 44 4 54 1 11
3 17 5 15 4 -4 19 -116 20 -156 1 -13 3 -23 6 -23 3 0 7 -14 8 -30 1 -17 9
-63 18 -103 8 -39 17 -82 20 -94 10 -54 19 -97 30 -143 3 -14 7 -34 9 -45 1
-11 7 -38 13 -60 6 -22 13 -53 15 -70 3 -16 12 -59 21 -95 8 -36 17 -77 20
-93 3 -15 8 -37 11 -48 4 -12 9 -31 10 -42 10 -59 17 -95 25 -122 5 -16 14
-55 19 -85 6 -30 13 -64 16 -75 2 -11 11 -51 20 -90 8 -38 18 -81 21 -95 3
-14 7 -35 9 -47 2 -11 6 -31 10 -43 4 -12 9 -34 11 -48 6 -33 9 -50 17 -82 4
-14 9 -37 12 -52 5 -27 9 -47 20 -98 4 -14 8 -34 10 -45 3 -11 7 -31 10 -45 4
-14 8 -36 11 -50 2 -14 10 -46 16 -72 l11 -47 223 0 c123 1 223 4 222 7 -2 8
6 53 37 192 8 33 13 60 18 90 3 14 10 43 15 65 6 22 14 54 16 70 3 17 8 41 11
55 3 14 8 36 11 50 2 14 7 36 11 50 3 14 7 30 9 35 1 6 5 26 8 45 4 19 16 72
26 117 11 46 22 95 24 110 5 27 23 111 31 148 2 11 17 83 34 160 16 77 35 163
41 190 7 28 14 61 16 75 3 13 14 60 24 105 10 45 21 93 24 108 2 15 7 35 10
45 3 9 7 33 10 52 5 35 21 114 31 160 3 14 7 45 9 70 2 25 7 53 11 63 4 9 4
24 1 33 -3 9 -2 12 5 9 6 -4 9 -21 8 -39 -2 -17 0 -37 5 -44 4 -7 2 -12 -6
-12 -8 0 -9 -3 -3 -8 6 -4 11 -27 11 -52 7 -196 10 -250 14 -250 3 0 6 -24 7
-53 1 -45 7 -134 18 -257 1 -19 3 -35 5 -35 1 0 3 -29 5 -65 2 -36 7 -85 11
-110 3 -25 8 -63 9 -85 2 -22 4 -40 5 -40 0 0 3 -22 5 -50 3 -27 7 -75 10
-105 3 -30 7 -75 9 -100 4 -43 12 -119 21 -205 2 -22 7 -67 10 -100 4 -33 8
-80 11 -105 5 -52 10 -100 18 -185 14 -141 17 -171 22 -187 4 -15 33 -16 312
-15 198 1 306 6 305 12 0 6 -4 39 -8 75 -4 36 -9 76 -11 90 -1 14 -6 52 -9 85
-4 33 -8 74 -10 90 -2 17 -6 53 -9 80 -3 28 -8 70 -11 95 -3 25 -8 65 -10 90
-3 25 -7 59 -9 75 -3 17 -8 59 -11 95 -3 36 -8 76 -10 90 -2 14 -7 54 -11 90
-3 36 -8 73 -9 82 -2 9 -7 48 -10 85 -4 37 -9 86 -12 108 -2 22 -6 54 -8 70
-2 17 -6 48 -9 70 -4 37 -13 109 -21 180 -2 17 -6 54 -9 83 -3 28 -8 73 -11
100 -3 26 -7 64 -10 85 -3 20 -7 61 -10 90 -3 28 -8 70 -11 92 -3 22 -7 54 -9
70 -10 110 -23 230 -25 230 -1 0 -3 23 -5 50 -2 28 -6 64 -10 80 -3 17 -8 57
-10 90 -6 63 -13 120 -15 120 -1 0 -3 25 -6 55 -2 30 -6 71 -9 90 -3 19 -7 60
-10 90 -2 30 -7 71 -11 90 -4 19 -7 38 -6 42 1 4 -3 44 -9 90 -6 46 -12 94
-14 108 -1 14 -3 28 -4 31 -1 7 -647 6 -654 -1 -2 -3 -14 -52 -26 -110 -13
-58 -25 -112 -28 -120 -3 -8 -7 -26 -9 -40 -2 -14 -20 -95 -40 -180 -19 -85
-37 -164 -39 -175 -2 -11 -4 -20 -5 -20 -1 0 -3 -11 -5 -25 -2 -14 -9 -47 -15
-75 -6 -27 -14 -61 -17 -75 -9 -43 -11 -55 -13 -57 -2 -2 -4 -12 -5 -23 -1
-11 -3 -21 -5 -22 -1 -2 -3 -11 -5 -20 -2 -9 -8 -40 -15 -70 -6 -29 -14 -64
-16 -78 -3 -14 -10 -43 -15 -65 -6 -22 -12 -51 -14 -65 -1 -14 -4 -25 -5 -25
-1 0 -3 -8 -5 -19 -2 -10 -8 -39 -14 -65 -6 -25 -13 -57 -15 -71 -3 -14 -14
-65 -25 -115 -22 -91 -45 -197 -56 -250 -6 -29 -10 -50 -19 -105 -3 -14 -5
-25 -6 -25 -3 0 -14 -89 -14 -117 -1 -16 -4 -28 -8 -28 -4 0 -5 -6 -2 -14 3
-8 -1 -17 -8 -22 -7 -4 -10 -4 -6 0 3 4 2 21 -2 37 -5 18 -5 29 1 29 6 0 6 7
-1 19 -5 11 -12 37 -14 58 -3 21 -7 47 -9 58 -3 11 -8 40 -13 65 -9 51 -11 59
-14 63 -1 1 -3 11 -5 22 -5 32 -15 79 -21 97 -3 10 -7 30 -10 45 -2 16 -11 57
-20 92 -9 35 -17 76 -19 90 -2 14 -4 26 -5 26 -1 0 -3 7 -5 15 -4 22 -46 211
-51 235 -3 11 -7 31 -10 45 -2 14 -7 39 -11 55 -4 17 -7 32 -8 35 0 3 -9 39
-18 80 -9 41 -19 86 -21 100 -3 14 -5 25 -6 25 -2 0 -6 17 -14 65 -3 19 -10
53 -16 75 -5 22 -9 40 -9 40 0 0 -2 7 -5 15 -6 20 -15 67 -22 114 -3 22 -10
48 -15 59 -6 10 -8 21 -5 24 2 3 1 15 -4 27 -4 13 -11 38 -14 58 -3 19 -12 60
-20 92 -8 31 -18 75 -21 98 -4 22 -11 52 -16 67 -6 14 -10 27 -10 29 8 27 -5
28 -324 28 -179 1 -328 -2 -330 -6z"/>
<path d="M20420 15938 c0 -6 21 -75 46 -154 25 -80 47 -150 48 -157 2 -7 8
-23 13 -37 13 -30 28 -92 25 -102 -1 -5 3 -8 8 -8 6 0 10 -8 10 -19 0 -10 7
-38 16 -62 8 -24 18 -53 20 -64 7 -27 10 -37 18 -60 15 -38 25 -70 34 -105 6
-19 40 -129 77 -245 37 -115 68 -214 69 -220 3 -14 37 -127 44 -145 3 -8 6
-17 7 -20 1 -3 4 -12 7 -20 3 -8 10 -31 16 -50 13 -43 107 -346 129 -415 9
-27 16 -52 15 -55 0 -3 4 -11 10 -17 6 -7 8 -13 4 -13 -3 0 1 -17 9 -37 9 -21
16 -40 17 -43 1 -6 1 -7 29 -100 13 -41 24 -77 24 -80 1 -3 12 -39 25 -80 13
-41 25 -77 25 -80 1 -8 75 -241 85 -270 15 -42 92 -293 95 -309 2 -9 4 -17 5
-18 2 -2 3 -6 5 -10 1 -5 4 -15 8 -23 3 -8 20 -63 38 -121 l32 -106 250 1 250
1 23 70 c12 39 39 121 59 184 20 62 38 121 40 130 2 9 11 35 19 58 9 22 17 52
20 65 5 25 13 52 26 83 7 17 37 114 46 150 1 6 19 60 38 120 20 61 38 119 40
130 3 11 20 67 39 125 20 58 45 139 57 180 12 41 26 80 30 85 5 6 8 13 8 18 1
16 15 73 25 97 13 32 12 29 21 73 5 20 11 37 15 37 4 0 7 8 8 18 1 24 9 50 26
97 16 41 88 272 91 290 1 6 4 15 8 20 3 6 9 26 13 45 4 19 12 41 17 48 6 6 8
12 5 12 -3 0 3 25 14 55 10 30 20 63 22 72 1 10 6 24 10 31 5 6 5 12 1 12 -3
0 -2 6 3 13 6 6 14 26 18 42 5 17 9 32 10 35 1 3 6 20 10 38 4 17 12 32 17 32
5 0 7 4 4 9 -3 4 8 48 24 97 42 129 101 317 104 329 1 6 5 16 9 23 5 6 6 16 2
21 -3 5 -1 12 4 15 4 3 12 20 16 38 4 18 8 35 9 38 1 3 6 19 12 35 14 37 54
169 54 177 0 4 -158 5 -352 5 -303 -2 -351 -4 -354 -17 -2 -17 -55 -216 -80
-300 -8 -30 -17 -64 -19 -75 -2 -11 -4 -20 -5 -20 -1 0 -3 -7 -5 -15 -1 -8
-15 -60 -30 -115 -14 -55 -28 -107 -30 -115 -2 -8 -11 -43 -20 -77 -9 -35 -18
-73 -20 -85 -3 -13 -9 -34 -14 -48 -8 -21 -15 -47 -26 -95 -2 -5 -22 -80 -44
-165 -23 -85 -44 -163 -46 -173 -2 -10 -7 -28 -11 -40 -4 -12 -9 -31 -10 -42
-2 -11 -15 -60 -29 -110 -14 -49 -27 -100 -29 -112 -3 -13 -7 -26 -10 -31 -3
-5 -7 -19 -9 -33 -3 -13 -13 -53 -22 -89 -9 -36 -18 -72 -20 -80 -2 -8 -8 -35
-14 -60 -11 -50 -13 -59 -41 -214 -17 -93 -28 -133 -31 -115 0 2 -2 11 -4 19
-1 8 -6 33 -9 55 -4 22 -9 54 -13 70 -3 17 -6 42 -7 58 0 15 -3 27 -6 27 -6 0
-11 26 -13 73 -1 15 -5 27 -8 27 -3 0 -6 6 -6 13 -2 31 -12 74 -22 100 -6 15
-9 27 -6 27 2 0 -2 18 -10 40 -8 22 -12 40 -8 40 3 0 0 7 -7 15 -7 8 -10 15
-7 15 2 0 -4 30 -14 68 -42 156 -131 488 -134 497 -1 6 -5 17 -8 25 -3 8 -8
26 -10 40 -3 14 -11 43 -17 65 -6 22 -12 47 -14 55 -2 8 -11 41 -19 73 -8 31
-12 57 -9 57 4 0 2 4 -4 8 -9 6 -25 61 -38 127 -2 11 -29 110 -59 220 -48 175
-62 229 -73 270 -17 67 -34 127 -39 134 -7 13 -695 11 -695 -1z"/>
<path d="M25028 15271 l-3 -335 -58 0 c-33 -1 -61 2 -64 7 -2 4 -10 4 -16 0
-6 -4 -32 -8 -57 -9 -25 0 -47 -2 -50 -3 -4 -1 -5 -504 -1 -546 1 -6 49 -10
123 -10 l123 0 3 -842 2 -842 290 1 290 1 0 842 0 842 113 -1 c61 -1 118 0
125 2 9 3 12 69 12 283 l0 279 -35 -3 c-20 -3 -38 0 -41 4 -3 5 -13 5 -22 1
-9 -4 -46 -8 -82 -7 l-65 1 -3 335 -2 335 -290 0 -290 0 -2 -335z"/>
<path d="M19085 15008 c-251 -25 -440 -170 -569 -435 -35 -71 -73 -176 -82
-223 -3 -14 -8 -34 -11 -45 -8 -24 -7 -20 -16 -70 -25 -138 -32 -226 -31 -425
0 -179 7 -299 20 -361 4 -21 7 -37 18 -99 8 -48 19 -96 25 -105 3 -5 6 -12 6
-15 5 -32 21 -82 36 -112 11 -21 17 -38 15 -38 -8 0 62 -129 103 -187 95 -139
219 -232 360 -270 56 -15 204 -21 251 -10 14 3 34 8 45 11 75 17 167 67 239
130 16 14 33 26 38 26 5 0 7 4 4 8 -3 5 4 16 15 25 26 22 139 195 139 213 0 7
4 15 9 18 5 3 9 -63 9 -152 0 -86 1 -167 1 -179 l1 -22 270 1 270 0 0 102 c4
1303 0 2140 -12 2147 -7 4 -15 5 -18 1 -6 -9 -107 -9 -116 0 -4 4 -14 4 -23
-1 -18 -9 -114 -7 -129 3 -6 3 -13 3 -15 -1 -3 -5 -56 -8 -119 -7 l-114 1 1
-166 c0 -92 -4 -165 -9 -164 -5 1 -27 34 -48 74 -42 80 -93 147 -147 194 -19
16 -39 35 -45 40 -6 6 -24 17 -41 25 -16 8 -32 18 -35 21 -9 10 -113 38 -170
47 -30 4 -86 4 -125 0z m333 -632 c43 -10 92 -30 92 -37 0 -4 8 -10 18 -13 72
-23 168 -190 188 -330 3 -17 7 -42 9 -56 15 -93 3 -266 -25 -369 -44 -163
-117 -247 -265 -306 -33 -13 -158 -12 -185 2 -14 7 -31 13 -38 13 -14 0 -62
32 -106 70 -24 22 -79 96 -81 110 0 3 -6 15 -13 28 -7 12 -9 22 -5 22 4 0 3 4
-3 8 -12 8 -32 84 -41 157 -7 57 -7 260 0 290 3 11 8 39 12 63 14 86 63 185
124 255 22 25 102 78 126 84 6 1 21 4 34 7 13 3 25 7 27 8 5 5 106 1 132 -6z"/>
<path d="M23708 15015 c-1 -1 -40 -6 -85 -9 -44 -3 -92 -10 -105 -15 -12 -5
-25 -8 -28 -8 -32 2 -218 -84 -255 -119 -13 -12 -25 -20 -28 -18 -2 2 -40 -34
-84 -80 -99 -103 -209 -267 -238 -356 -1 -3 -7 -18 -14 -35 -7 -16 -14 -38
-17 -49 -2 -10 -9 -25 -16 -34 -7 -8 -12 -18 -10 -21 1 -3 -6 -44 -17 -91 -30
-125 -36 -195 -36 -395 0 -187 4 -239 31 -365 25 -115 96 -309 117 -318 4 -2
7 -9 7 -15 0 -22 98 -154 165 -222 173 -175 375 -257 635 -258 288 -1 503 96
663 298 34 42 97 162 90 169 -4 3 -2 6 4 6 5 0 10 6 10 13 0 6 3 22 7 34 6 18
1 24 -31 39 -21 10 -54 28 -73 39 -19 12 -69 39 -110 61 -41 21 -81 44 -88 51
-8 7 -17 11 -22 8 -5 -3 -11 -1 -15 5 -5 8 -90 50 -101 50 -2 0 -4 -7 -4 -15
0 -20 -65 -123 -93 -147 -36 -31 -107 -79 -107 -73 0 3 -10 0 -22 -6 -36 -20
-144 -27 -215 -15 -47 7 -124 50 -160 88 -33 34 -123 195 -101 182 7 -5 8 -3
3 6 -12 20 -25 79 -32 150 -11 114 -14 105 43 106 28 0 56 4 62 8 6 3 13 3 15
-1 6 -10 90 -9 105 1 7 4 12 4 12 -1 0 -4 29 -8 65 -8 36 0 65 3 65 8 0 4 5 5
10 2 16 -10 120 -13 120 -3 0 4 10 4 23 0 26 -9 99 -8 116 2 6 4 11 3 11 -1 0
-5 20 -8 45 -8 25 0 45 3 45 7 0 4 10 4 23 0 26 -9 99 -8 116 2 6 4 11 4 11
-1 0 -4 56 -8 125 -8 69 0 125 4 125 8 0 5 5 5 10 2 20 -12 100 -12 111 1 13
16 3 280 -15 379 -2 11 -8 45 -12 75 -9 64 -7 53 -23 110 -7 25 -15 52 -16 60
-12 50 -82 229 -94 240 -3 3 -7 10 -8 17 -3 16 -68 118 -107 167 -44 56 -136
145 -168 162 -16 8 -28 19 -28 24 0 6 -3 9 -7 8 -5 -1 -37 13 -73 30 -77 37
-162 61 -245 68 -33 3 -65 7 -72 9 -6 2 -13 2 -15 0z m89 -513 c23 -12 57 -36
76 -54 31 -30 81 -96 82 -108 1 -3 6 -14 12 -25 16 -30 41 -124 45 -170 l3
-40 -335 0 -335 0 2 30 c2 36 8 74 16 95 2 8 13 38 23 65 10 28 17 53 16 58
-1 4 3 7 8 7 6 0 10 5 10 10 0 31 95 117 154 139 68 25 166 22 223 -7z"/>
<path d="M14870 15007 c-3 -3 -23 -7 -45 -10 -22 -3 -52 -10 -65 -15 -27 -11
-29 -11 -62 -20 -30 -7 -163 -76 -182 -93 -9 -8 -27 -23 -42 -34 -55 -43 -180
-179 -190 -207 -3 -10 -10 -18 -15 -18 -5 0 -9 -4 -9 -10 0 -5 -16 -34 -35
-64 -19 -30 -35 -57 -35 -59 0 -3 -10 -26 -22 -53 -12 -27 -23 -51 -23 -54 -1
-3 -7 -17 -13 -32 -13 -31 -43 -142 -48 -173 -1 -11 -3 -20 -4 -20 -4 0 -16
-80 -26 -180 -9 -83 -10 -236 -3 -325 10 -107 24 -215 30 -215 1 0 3 -9 4 -20
2 -11 8 -34 13 -52 6 -17 8 -34 4 -37 -3 -3 0 -6 7 -6 7 0 11 -6 8 -14 -3 -7
-2 -17 3 -22 4 -5 13 -27 20 -48 16 -49 70 -153 118 -226 38 -58 203 -230 220
-230 6 0 12 -3 14 -7 8 -19 198 -113 228 -113 10 0 22 -5 25 -10 4 -6 12 -10
18 -8 7 1 39 -4 72 -12 69 -15 279 -16 345 -2 116 26 168 41 175 52 3 5 12 7
19 4 7 -3 19 2 26 11 7 8 17 15 23 15 14 0 137 83 137 93 0 4 6 7 14 7 8 0 18
9 21 21 4 11 9 18 12 15 7 -7 83 88 83 102 0 6 7 15 16 20 9 5 15 11 14 13 0
2 12 33 28 69 48 107 48 104 -22 140 -33 18 -83 44 -111 59 -27 15 -79 43
-115 62 -36 18 -68 38 -71 42 -3 5 -9 8 -13 8 -3 -1 -20 6 -37 15 -17 8 -32
14 -32 12 -64 -127 -110 -180 -194 -222 -60 -31 -163 -51 -187 -38 -4 2 -27 6
-50 7 -99 5 -191 77 -247 195 -17 36 -32 75 -33 87 0 13 -4 23 -7 23 -3 0 -6
6 -6 13 -1 6 -4 28 -7 48 -4 20 -8 66 -10 102 l-4 66 35 -3 c18 -1 36 1 39 6
3 5 11 5 17 1 16 -10 78 -10 99 -1 9 5 19 5 21 0 6 -9 90 -8 105 2 7 4 12 4
12 -1 0 -10 101 -10 118 0 6 5 12 5 12 0 0 -10 82 -9 98 1 7 4 12 3 12 -2 0
-4 21 -7 48 -5 26 2 52 4 57 4 142 -5 235 -4 235 1 0 4 10 4 23 0 26 -9 99 -8
116 2 6 4 11 3 11 -1 0 -10 83 -9 98 1 6 3 13 3 15 -2 6 -9 79 -8 94 1 14 9 4
320 -12 377 -3 8 -7 33 -11 55 -9 64 -12 80 -14 80 -1 0 -3 9 -4 20 -16 124
-156 442 -218 496 -10 9 -18 20 -18 25 0 12 -113 122 -165 160 -110 82 -244
124 -420 131 -71 3 -132 3 -135 0z m210 -508 c73 -38 136 -116 181 -224 10
-26 29 -120 29 -148 l0 -22 -338 0 -339 0 8 35 c4 19 10 46 12 60 8 42 47 150
64 179 43 69 114 123 188 142 48 13 151 1 195 -22z"/>
<path d="M16770 15000 c-19 -4 -55 -15 -80 -24 -25 -9 -50 -18 -56 -19 -58
-13 -262 -195 -285 -254 -5 -13 -14 -23 -20 -23 -7 0 -9 -3 -6 -6 4 -4 -2 -19
-12 -33 -45 -65 -123 -268 -137 -359 -3 -19 -8 -44 -11 -56 -3 -11 -6 -34 -8
-51 -2 -16 -4 -30 -5 -30 -14 0 -19 -494 -6 -600 4 -33 9 -70 12 -82 2 -13 6
-35 9 -50 13 -67 48 -199 56 -207 5 -6 9 -17 9 -24 0 -24 69 -162 117 -233 90
-135 224 -241 348 -274 79 -22 224 -27 303 -10 168 37 309 149 403 322 19 35
37 63 40 63 8 0 5 -33 -5 -48 -4 -6 -3 -12 1 -12 10 0 11 -116 1 -126 -4 -3
-4 -14 0 -23 9 -20 9 -42 -1 -58 -5 -8 -3 -13 3 -13 6 0 8 -4 5 -10 -3 -5 -8
-47 -10 -92 -10 -199 -35 -290 -100 -366 -18 -21 -66 -53 -87 -58 -5 -1 -9 -2
-10 -4 -23 -17 -187 -19 -238 -2 -45 15 -124 62 -105 62 6 0 2 5 -8 11 -18 11
-53 78 -59 114 -3 19 -11 20 -308 20 l-305 0 1 -30 c1 -37 11 -112 18 -142 3
-13 8 -32 11 -44 14 -63 45 -133 90 -202 46 -71 78 -105 155 -163 76 -57 130
-86 220 -115 64 -21 85 -26 145 -34 81 -10 106 -15 115 -20 6 -3 10 -2 10 4 0
6 11 6 30 1 19 -5 30 -5 30 1 0 6 6 7 16 1 8 -5 35 -6 59 -2 27 4 48 3 55 -4
6 -6 10 -6 10 0 0 5 19 11 43 12 50 3 102 9 102 12 0 2 11 3 25 4 14 1 30 5
36 8 6 4 21 9 35 12 32 6 119 36 144 49 11 6 23 10 28 9 4 -1 7 1 7 6 0 4 13
13 28 20 16 6 38 21 50 32 12 11 25 20 30 20 11 0 129 128 147 160 32 56 84
162 83 168 -1 4 2 14 5 22 12 30 36 126 43 175 8 53 10 63 13 68 1 1 4 44 6
95 2 51 7 97 10 102 4 6 3 10 -2 10 -9 0 -7 235 2 250 3 5 3 10 -2 10 -9 0 -8
134 2 149 3 6 3 11 -2 11 -9 0 -7 455 2 470 3 6 3 10 -2 10 -9 0 -7 455 2 470
3 6 3 10 -2 10 -9 0 -7 455 2 470 3 6 3 10 -2 10 -4 0 -8 89 -8 197 l0 198
-270 1 -271 1 1 -161 c0 -88 -1 -166 -3 -173 -2 -7 -20 18 -39 55 -100 193
-233 304 -407 342 -52 11 -186 11 -246 0z m429 -634 c12 -3 29 -10 35 -16 7
-5 15 -8 18 -5 3 3 11 -1 18 -10 7 -8 17 -15 23 -15 15 0 94 -84 102 -109 3
-11 11 -21 17 -21 6 0 8 -3 5 -7 -4 -3 0 -15 10 -25 9 -10 13 -18 8 -18 -4 0
-3 -6 2 -12 6 -7 16 -38 23 -68 7 -30 15 -64 19 -75 9 -23 7 -286 -2 -330 -7
-32 -16 -73 -21 -90 -2 -5 -9 -23 -16 -40 -7 -16 -14 -36 -16 -44 -1 -8 -6
-17 -11 -20 -4 -3 -9 -12 -11 -19 -2 -12 -40 -59 -77 -94 -11 -10 -46 -32 -78
-48 -53 -26 -66 -29 -150 -27 -143 3 -225 49 -299 167 -64 101 -91 222 -90
395 1 68 7 150 12 150 1 0 3 12 5 26 13 100 67 209 134 271 43 41 97 74 114
70 4 -1 7 2 7 8 0 5 6 7 14 4 8 -3 16 -1 20 4 5 9 143 8 185 -2z"/>
<path d="M14049 11505 c-1 0 -2 -54 -3 -120 -1 -66 -5 -125 -9 -132 -4 -6 -4
-14 1 -16 9 -7 9 -448 -1 -464 -4 -6 -4 -14 1 -16 6 -5 9 -437 2 -462 -1 -5
-1 -14 0 -20 1 -5 3 -80 4 -165 l1 -155 115 -3 c63 -1 124 0 135 3 20 4 20 11
17 777 l-2 773 -130 0 c-72 0 -131 0 -131 0z"/>
<path d="M15056 11500 c-1 -3 -2 -351 -2 -775 l1 -770 128 -3 c70 -1 128 1
128 5 1 4 2 123 4 263 1 140 5 278 9 305 13 99 51 169 101 190 37 15 87 11
112 -8 52 -41 56 -69 59 -382 2 -159 4 -292 5 -295 1 -3 0 -9 -1 -15 -1 -5 -3
-22 -4 -37 l-2 -27 132 0 c96 -1 133 3 136 12 4 10 1 676 -3 727 -3 51 -21
130 -36 160 -28 56 -94 114 -149 132 -61 20 -143 16 -205 -10 -35 -14 -107
-88 -130 -134 -11 -21 -21 -38 -22 -38 -2 0 -2 155 -2 345 1 190 -1 348 -4
353 -7 8 -251 11 -255 2z"/>
<path d="M25112 11158 c2 -191 2 -348 1 -348 -1 0 -15 24 -32 53 -52 91 -126
134 -226 132 -118 -3 -207 -69 -269 -200 -38 -79 -53 -135 -62 -227 -11 -113
-11 -129 -2 -134 5 -3 4 -12 -3 -20 -7 -9 -8 -14 -1 -14 5 0 8 -8 6 -17 -5
-18 8 -114 21 -163 3 -14 7 -30 9 -37 1 -7 5 -16 9 -19 4 -4 7 -16 7 -26 0
-10 4 -18 8 -18 4 0 13 -15 20 -32 23 -63 109 -141 176 -160 53 -15 128 -18
144 -5 6 5 12 6 12 3 0 -14 67 31 105 71 54 56 65 70 65 82 0 5 5 13 11 16 7
5 9 -14 7 -57 -1 -34 1 -69 5 -76 6 -9 40 -12 125 -10 l117 2 0 775 0 775
-128 1 -128 1 3 -348z m-74 -473 c34 -21 89 -115 78 -134 -4 -5 -2 -12 4 -16
13 -8 13 -121 -1 -147 -8 -15 -8 -19 0 -13 18 11 -26 -95 -50 -121 -46 -49
-131 -65 -188 -35 -63 34 -99 132 -96 258 2 96 35 174 88 209 41 27 118 27
165 -1z"/>
<path d="M10889 11417 c-1 -1 -3 -34 -4 -73 -1 -39 -5 -76 -9 -82 -4 -7 -3
-12 1 -12 9 0 8 -104 -1 -119 -4 -5 -3 -12 1 -14 10 -6 9 -119 -1 -135 -3 -6
-3 -13 1 -15 10 -6 9 -129 0 -145 -4 -6 -4 -13 0 -15 10 -6 8 -140 -1 -156 -4
-6 -4 -11 1 -11 10 0 9 -122 0 -138 -4 -6 -4 -13 0 -15 10 -6 9 -129 0 -145
-4 -6 -4 -13 0 -15 10 -6 8 -140 -1 -156 -4 -6 -4 -11 1 -11 4 0 7 -47 6 -104
l-1 -103 149 -2 149 -1 1 57 c0 32 0 166 1 299 l0 241 198 1 198 1 -2 -269 c0
-149 3 -270 7 -270 4 0 3 -8 -2 -18 -19 -36 -1 -41 150 -41 l146 0 -1 732 -1
732 -150 3 -150 2 1 -285 1 -285 -197 0 -198 0 0 164 c0 90 -3 169 -6 175 -4
6 -4 11 1 11 4 0 8 48 7 108 l-1 107 -146 2 c-81 2 -148 2 -148 0z"/>
<path d="M19888 11413 c-2 -4 -4 -334 -3 -733 l1 -725 139 0 140 0 1 235 c1
129 2 237 3 240 1 3 52 6 114 7 62 0 131 6 153 12 21 6 41 10 44 9 3 -2 27 13
53 31 53 36 121 131 132 184 4 18 11 37 15 42 5 6 8 12 8 15 0 3 3 30 7 60 31
253 -31 471 -161 563 -74 53 -133 62 -403 65 -131 2 -241 -1 -243 -5z m452
-331 c51 -25 73 -70 73 -150 0 -89 -30 -148 -80 -157 -10 -2 -19 -4 -20 -5 -2
-2 -12 -4 -23 -5 -11 -1 -21 -3 -22 -4 -9 -7 -79 -7 -89 0 -14 8 -21 316 -7
334 11 16 127 6 168 -13z"/>
<path d="M23216 10692 c1 -400 2 -730 3 -734 1 -9 661 -9 662 0 1 4 2 81 3
172 l2 165 -176 -1 c-96 0 -180 1 -185 3 -7 2 -11 179 -10 546 0 298 -1 550
-3 559 -4 15 -21 17 -151 16 l-146 0 1 -726z"/>
<path d="M14559 11260 c-1 -3 -2 -70 -3 -150 l-1 -145 -57 0 -57 0 2 -125 2
-125 55 -3 55 -3 0 -377 0 -377 131 -2 131 -2 1 362 c0 199 1 370 1 381 1 13
6 17 21 13 11 -3 22 -2 25 2 2 4 18 6 35 3 l30 -4 0 125 c0 138 1 136 -67 131
-38 -2 -43 0 -44 19 0 12 -1 80 -2 152 l-2 130 -127 0 c-71 0 -129 -2 -129 -5z"/>
<path d="M21746 11260 c-2 -3 -4 -66 -4 -140 0 -74 -1 -140 -1 -146 -1 -6 -22
-10 -55 -9 l-54 2 -4 -39 c-2 -22 0 -42 4 -44 5 -3 5 -11 1 -19 -5 -7 -7 -45
-5 -84 l4 -71 56 0 57 0 -1 -380 -2 -381 132 3 131 3 1 365 c1 201 2 370 3
377 1 16 30 21 63 12 18 -5 30 -3 35 4 9 14 13 246 4 248 -3 1 -28 2 -56 3
l-50 1 0 148 c0 81 -2 148 -5 148 -19 4 -252 4 -254 -1z"/>
<path d="M24059 11260 c-1 -3 -3 -61 -4 -130 -2 -69 -3 -135 -4 -146 -1 -19
-7 -21 -53 -20 l-53 1 0 -63 c0 -34 -4 -62 -8 -62 -4 0 -3 -9 3 -19 5 -11 7
-22 2 -25 -4 -2 -6 -23 -4 -45 l4 -41 57 0 56 0 -1 -379 -1 -379 129 -1 c70
-1 129 2 129 6 1 5 2 175 3 378 l1 370 57 3 56 3 -1 127 -2 127 -45 0 c-25 0
-50 3 -55 7 -7 4 -10 59 -10 142 1 75 -2 140 -5 144 -6 8 -249 10 -251 2z"/>
<path d="M12391 10988 c-13 -4 -35 -9 -48 -10 -12 -1 -23 -5 -23 -8 0 -3 -12
-11 -27 -17 -92 -41 -206 -213 -228 -343 -3 -19 -8 -46 -10 -60 -5 -26 -9
-141 -5 -150 1 -3 3 -25 5 -50 2 -25 7 -55 10 -67 3 -13 7 -32 9 -43 12 -52
73 -157 115 -199 76 -73 104 -90 201 -116 51 -13 199 -10 218 5 1 2 7 4 12 5
6 1 13 4 18 5 4 1 10 2 15 1 4 0 7 4 7 9 0 6 7 10 15 10 15 0 134 108 135 123
0 4 0 11 0 16 0 5 7 16 14 24 22 22 4 39 -98 92 l-89 46 -20 -33 c-33 -54 -72
-77 -142 -83 -54 -4 -135 39 -135 72 0 7 -5 13 -12 13 -6 0 -9 3 -5 6 3 4 0
19 -8 34 -8 15 -12 30 -9 33 3 3 1 14 -5 26 -7 12 -7 22 -1 26 5 3 7 12 4 19
-5 12 41 14 281 13 l286 -2 -2 79 c-1 43 -6 99 -11 125 -5 25 -11 55 -12 66
-4 24 -17 58 -51 130 -26 53 -113 161 -123 151 -3 -3 -10 1 -16 9 -6 9 -21 17
-34 20 -12 2 -28 7 -35 12 -28 17 -159 25 -196 11z m135 -230 c35 -19 71 -80
80 -134 6 -39 21 -35 -151 -35 -161 0 -157 0 -149 13 4 7 9 22 10 34 4 38 44
104 69 116 14 6 25 14 25 18 0 13 86 4 116 -12z"/>
<path d="M13298 10995 c-2 -2 -15 -5 -28 -8 -44 -6 -94 -33 -133 -70 -20 -20
-37 -41 -37 -47 0 -5 -4 -10 -8 -10 -16 0 -68 -122 -88 -207 -10 -40 -13 -355
-4 -373 5 -8 13 -38 19 -67 28 -140 129 -268 229 -291 80 -18 181 1 226 43 14
13 27 20 30 17 3 -3 6 -1 6 4 0 5 12 23 26 39 14 17 30 41 35 54 15 38 23 16
21 -58 l-2 -69 123 0 122 0 -1 496 c-1 274 -2 502 -3 507 -1 11 -225 14 -236
4 -3 -3 -6 -39 -6 -78 l-1 -72 -30 48 c-55 89 -121 133 -209 139 -26 1 -48 1
-51 -1z m199 -299 c53 -27 86 -83 98 -166 4 -25 9 -47 11 -49 2 -2 -1 -10 -7
-18 -6 -7 -8 -13 -3 -13 5 0 9 -11 9 -25 0 -14 -2 -25 -5 -25 -3 0 -7 -11 -8
-26 -1 -14 -6 -33 -12 -43 -5 -10 -7 -21 -4 -24 9 -8 -85 -99 -95 -92 -5 3
-12 1 -15 -3 -14 -22 -156 16 -156 41 0 6 -6 18 -14 26 -46 55 -56 233 -18
332 34 87 138 128 219 85z"/>
<path d="M16338 10989 c-15 -4 -29 -4 -32 -1 -3 3 -6 -1 -6 -8 0 -7 -3 -11 -6
-7 -12 12 -88 -36 -134 -84 -55 -58 -103 -149 -127 -239 -24 -90 -24 -310 1
-399 16 -61 51 -144 68 -166 63 -79 139 -146 172 -151 6 -1 29 -6 51 -12 42
-11 126 -10 160 3 36 12 105 48 106 54 1 3 2 72 3 153 2 138 1 146 -16 137
-10 -5 -18 -14 -18 -19 0 -6 -7 -10 -15 -10 -8 0 -15 -4 -15 -9 0 -11 -44 -24
-85 -25 -35 -1 -81 20 -108 49 -26 29 -60 104 -53 121 3 8 2 14 -3 14 -12 0
-7 137 7 185 27 91 71 134 145 140 48 4 86 -11 128 -51 14 -13 27 -24 30 -24
2 0 4 66 4 146 0 143 0 145 -25 164 -13 10 -28 16 -32 14 -4 -3 -8 -1 -8 5 0
20 -137 35 -192 20z"/>
<path d="M16972 10979 c-103 -35 -193 -154 -227 -302 -12 -55 -29 -184 -27
-212 1 -5 3 -44 7 -85 5 -73 8 -94 20 -153 9 -46 47 -140 68 -172 28 -41 93
-102 117 -110 11 -4 20 -11 20 -16 0 -6 5 -7 10 -4 6 4 16 3 23 -3 11 -8 105
-9 137 0 41 11 65 22 78 34 7 7 21 19 30 26 23 17 82 94 82 107 0 5 4 12 8 15
5 3 8 -30 7 -73 l-2 -78 123 -1 124 -2 0 504 c0 394 -3 505 -12 508 -11 4
-209 3 -230 -1 -3 0 -6 -25 -6 -53 0 -107 0 -107 -22 -65 -29 55 -79 106 -124
129 -52 27 -138 29 -204 7z m273 -293 c43 -33 75 -93 81 -154 3 -26 7 -51 8
-57 8 -24 -16 -142 -35 -181 -28 -55 -96 -94 -154 -87 -44 4 -115 48 -115 69
0 8 -5 14 -12 14 -6 0 -8 3 -5 7 4 3 2 12 -4 19 -15 18 -23 75 -22 149 2 134
33 200 111 236 49 23 105 17 147 -15z"/>
<path d="M18750 10988 c-19 -5 -41 -9 -47 -10 -7 -1 -13 -6 -13 -11 0 -6 -3
-8 -6 -4 -4 3 -25 -7 -48 -22 -143 -100 -221 -270 -224 -486 0 -84 11 -180 25
-215 3 -8 7 -20 8 -26 9 -39 67 -134 110 -179 86 -90 180 -124 320 -118 91 4
95 5 95 16 0 6 3 8 6 4 11 -11 99 40 139 80 50 50 91 134 70 146 -8 4 -16 6
-18 5 -1 -2 -15 7 -31 20 -16 12 -35 22 -42 22 -8 0 -14 3 -14 8 0 6 -72 42
-85 42 -3 0 -5 -6 -5 -13 0 -27 -58 -78 -104 -92 -117 -35 -208 41 -221 184
l-4 49 262 0 c144 0 274 1 288 1 26 1 27 2 23 64 -8 129 -19 191 -53 278 -38
99 -119 203 -168 215 -13 4 -23 10 -23 15 0 5 -8 9 -18 9 -10 0 -22 3 -26 7
-17 17 -144 24 -196 11z m117 -217 c23 -2 107 -101 87 -101 -4 0 -2 -6 3 -12
5 -7 10 -26 12 -43 l2 -30 -98 2 c-54 1 -122 2 -152 2 l-53 1 6 33 c11 56 49
119 84 137 29 16 52 18 109 11z"/>
<path d="M18244 10978 c-3 -5 -9 -6 -13 -4 -11 7 -81 -32 -107 -58 -26 -27
-65 -83 -68 -99 -2 -7 -10 -28 -19 -47 -15 -34 -15 -33 -15 71 0 59 -2 110 -5
115 -4 7 -199 11 -239 5 -4 -1 -7 -228 -7 -506 l0 -505 132 3 132 2 1 240 c1
241 7 319 26 343 6 6 7 12 4 12 -16 0 58 91 85 105 41 22 107 26 147 9 31 -13
32 -12 33 14 0 15 2 35 4 44 2 9 6 59 9 110 3 51 8 103 10 115 3 13 -1 26 -7
30 -17 10 -97 11 -103 1z"/>
<path d="M20730 10959 c0 -6 18 -63 28 -89 3 -8 6 -17 7 -20 1 -3 4 -12 7 -20
3 -8 36 -107 73 -220 36 -113 70 -212 73 -220 4 -8 39 -110 77 -227 l70 -212
105 1 106 0 12 37 c7 20 14 41 15 46 2 6 16 48 32 95 16 47 30 88 31 93 1 4 3
10 4 15 1 4 2 10 1 15 0 4 4 7 11 7 6 0 9 3 6 6 -5 4 144 453 180 545 6 15 14
43 17 63 4 20 11 39 16 42 5 3 9 15 9 27 0 22 -2 22 -135 22 l-135 0 -9 -27
c-6 -16 -8 -28 -6 -28 3 0 0 -12 -6 -27 -12 -32 -116 -388 -130 -446 -5 -21
-7 -42 -4 -48 4 -5 1 -9 -4 -9 -6 0 -12 7 -12 15 -1 8 -2 18 -4 23 -1 4 -5 21
-9 37 -18 70 -49 172 -59 192 -6 13 -8 26 -4 29 3 4 0 18 -7 33 -15 28 -39
122 -34 132 2 3 -2 12 -8 20 -6 8 -14 31 -18 51 -4 21 -12 41 -19 45 -14 9
-277 11 -277 2z"/>
<path d="M22315 10296 c-19 -11 -35 -26 -35 -33 0 -7 -3 -13 -8 -13 -15 0 -35
-64 -37 -121 -7 -154 97 -255 206 -199 88 45 119 191 65 299 -19 37 -37 56
-66 71 -46 24 -79 23 -125 -4z"/>
<path d="M25658 10308 c-16 -5 -28 -14 -28 -19 0 -5 -6 -9 -13 -9 -24 0 -62
-100 -61 -160 2 -66 8 -92 31 -132 41 -70 125 -95 185 -55 61 42 99 167 75
252 -7 24 -47 103 -47 92 0 -4 -10 1 -22 13 -12 11 -27 20 -32 21 -6 0 -22 2
-36 4 -14 2 -37 -1 -52 -7z"/>
</g>
</svg>
